<svg id="Layer_1" data-name="Layer 1" xmlns="http://www.w3.org/2000/svg" xmlns:xlink="http://www.w3.org/1999/xlink" viewBox="0 0 378.66 79.02"><defs><style>.cls-1{fill:url(#linear-gradient);}</style><linearGradient id="linear-gradient" x1="293.99" y1="330.87" x2="353.47" y2="218.73" gradientUnits="userSpaceOnUse"><stop offset="0.22" stop-color="#00e9c6"/><stop offset="0.42" stop-color="#00ddc8"/><stop offset="0.72" stop-color="#01cdcb"/></linearGradient></defs><path d="M383.34,297.84c-7.59,0-13.19-3.18-13.58-9.33a.69.69,0,0,1,.67-.63h5.15a.66.66,0,0,1,.67.63c.27,3.55,2.71,5.09,7.09,5.09,3.71,0,6-1.43,6-4,0-6-19-.68-19-11.92,0-5.51,4.66-8.43,11.92-8.43,6.92,0,11.86,2.76,12.41,8.32a.61.61,0,0,1-.61.64h-4.88a.73.73,0,0,1-.77-.64c-.5-2.7-2.61-4.19-6.26-4.19-3.33,0-5.44,1.17-5.44,3.82,0,5.89,19,.32,19,11.88C395.75,294.66,390.32,297.84,383.34,297.84Z" transform="translate(-290.67 -242.17)"/><path d="M426.73,287.88a.56.56,0,0,1,.55.63c-.83,5.14-5.48,9.33-13,9.33-9.2,0-14.19-5.88-14.19-14.21,0-8.63,5.27-14.36,14-14.36s13.8,5.62,14,14.84a.7.7,0,0,1-.67.64H406.78c.28,5.83,2.77,8.59,7.54,8.59,3.43,0,5.7-1.54,6.53-4.83a.89.89,0,0,1,.84-.63Zm-12.64-14.16c-4,0-6.37,2.33-7.09,6.73h13.85C420.58,276.9,418.42,273.72,414.09,273.72Z" transform="translate(-290.67 -242.17)"/><path d="M433.82,297.21a.7.7,0,0,1-.66-.64l.27-13.15-.27-12.88a.69.69,0,0,1,.66-.63h5.43a.6.6,0,0,1,.61.63l-.17,4.24a11.39,11.39,0,0,1,10-5.09,9.85,9.85,0,0,1,1.27.11.75.75,0,0,1,.67.74v3.71a.63.63,0,0,1-.67.59,7.46,7.46,0,0,0-1.21-.06c-5.32,0-9.48,2.92-9.87,9l.11,12.78a.7.7,0,0,1-.66.64Z" transform="translate(-290.67 -242.17)"/><path d="M472.72,296.78a1,1,0,0,1-.89.58h-6.92a1,1,0,0,1-.89-.58l-9.64-26.29a.44.44,0,0,1,.44-.58h5.88a1,1,0,0,1,.88.58l7,21.79,7.43-21.79a1,1,0,0,1,.88-.58h5a.44.44,0,0,1,.44.58Z" transform="translate(-290.67 -242.17)"/><path d="M487,297.21a.7.7,0,0,1-.67-.64l.28-13.2-.28-12.83a.69.69,0,0,1,.67-.63h5.65a.69.69,0,0,1,.66.63l-.27,12.83.27,13.2a.7.7,0,0,1-.66.64Zm.11-30.27a.7.7,0,0,1-.67-.64v-5a.7.7,0,0,1,.67-.64h5.43a.7.7,0,0,1,.66.64v5a.7.7,0,0,1-.66.64Z" transform="translate(-290.67 -242.17)"/><path d="M512.84,297.84c-8.81,0-14-5.56-14-14.21S504,269.27,513,269.27c7.09,0,11.64,3.87,12.36,9.59a.62.62,0,0,1-.61.64h-4.83a.76.76,0,0,1-.77-.64,5.93,5.93,0,0,0-6.15-5c-4.94,0-7.26,3.39-7.26,9.75,0,6.58,2.38,9.7,7.26,9.76,3.43.05,5.93-2,6.43-5.89a.7.7,0,0,1,.72-.63h5a.6.6,0,0,1,.61.63C525.09,293.5,520.16,297.84,512.84,297.84Z" transform="translate(-290.67 -242.17)"/><path d="M556.51,287.88a.56.56,0,0,1,.55.63c-.83,5.14-5.48,9.33-13,9.33-9.2,0-14.19-5.88-14.19-14.21,0-8.63,5.27-14.36,14-14.36s13.8,5.62,14,14.84a.7.7,0,0,1-.67.64H536.56c.27,5.83,2.77,8.59,7.53,8.59,3.44,0,5.71-1.54,6.54-4.83a.88.88,0,0,1,.83-.63Zm-12.64-14.16c-4,0-6.37,2.33-7.09,6.73h13.85C550.36,276.9,548.2,273.72,543.87,273.72Z" transform="translate(-290.67 -242.17)"/><path d="M578.23,297.74a10.13,10.13,0,0,1-8.48-3.87l.17,11.71a.71.71,0,0,1-.67.64H563.6a.71.71,0,0,1-.67-.64l.28-19.82-.28-15.22a.7.7,0,0,1,.67-.63h5.48a.69.69,0,0,1,.67.63l-.11,3.08a10.43,10.43,0,0,1,8.76-4.24c7.87,0,12.08,6.14,12.08,14.1S585.88,297.74,578.23,297.74Zm-1.77-4.56c4.82,0,7.2-3.5,7.2-9.33,0-6.2-2.33-9.86-7.09-9.86-4.44,0-7,3.18-7.1,9.33C569.42,289.62,571.91,293.18,576.46,293.18Z" transform="translate(-290.67 -242.17)"/><path d="M596.68,297.21a.7.7,0,0,1-.66-.64l.27-13.2L596,270.54a.69.69,0,0,1,.66-.63h5.65a.69.69,0,0,1,.67.63l-.28,12.83.28,13.2a.7.7,0,0,1-.67.64Zm.11-30.27a.7.7,0,0,1-.66-.64v-5a.7.7,0,0,1,.66-.64h5.43a.7.7,0,0,1,.67.64v5a.7.7,0,0,1-.67.64Z" transform="translate(-290.67 -242.17)"/><path d="M624.72,297.74a10.13,10.13,0,0,1-8.48-3.87l.17,11.71a.7.7,0,0,1-.67.64h-5.65a.7.7,0,0,1-.66-.64l.27-19.82-.27-15.22a.69.69,0,0,1,.66-.63h5.49a.69.69,0,0,1,.66.63l-.11,3.08a10.43,10.43,0,0,1,8.76-4.24c7.87,0,12.08,6.14,12.08,14.1S632.37,297.74,624.72,297.74ZM623,293.18c4.82,0,7.2-3.5,7.2-9.33,0-6.2-2.32-9.86-7.09-9.86-4.43,0-7,3.18-7.09,9.33C615.91,289.62,618.4,293.18,623,293.18Z" transform="translate(-290.67 -242.17)"/><path d="M668,287.88a.57.57,0,0,1,.56.63c-.84,5.14-5.49,9.33-13,9.33-9.2,0-14.19-5.88-14.19-14.21,0-8.63,5.27-14.36,14-14.36s13.8,5.62,14,14.84a.7.7,0,0,1-.66.64H648.05c.28,5.83,2.77,8.59,7.54,8.59,3.43,0,5.71-1.54,6.54-4.83a.87.87,0,0,1,.83-.63Zm-12.63-14.16c-4,0-6.38,2.33-7.1,6.73h13.86C661.85,276.9,659.69,273.72,655.37,273.72Z" transform="translate(-290.67 -242.17)"/><path class="cls-1" d="M339.47,262.35l8.49-8.49a2.19,2.19,0,0,0-.09-3.18A34.51,34.51,0,0,0,300.7,301l-8.49,8.49a2.19,2.19,0,0,0,.09,3.18,34.51,34.51,0,0,0,47.17-50.32Zm-8.81,11.54A20.21,20.21,0,0,1,300.79,301l8.61-8.61a2.2,2.2,0,0,0,.11-3,20.21,20.21,0,0,1,29.88-27.14l-8.62,8.62A2.19,2.19,0,0,0,330.66,273.89Z" transform="translate(-290.67 -242.17)"/></svg>