<svg id="Layer_1" data-name="Layer 1" xmlns="http://www.w3.org/2000/svg" xmlns:xlink="http://www.w3.org/1999/xlink" viewBox="0 0 223.3 299.92"><defs><style>.cls-1{fill:url(#linear-gradient);}</style><linearGradient id="linear-gradient" x1="181.19" y1="468.38" x2="406.95" y2="42.77" gradientUnits="userSpaceOnUse"><stop offset="0.22" stop-color="#00e9c6"/><stop offset="0.42" stop-color="#00ddc8"/><stop offset="0.72" stop-color="#01cdcb"/></linearGradient></defs><path class="cls-1" d="M353.82,208.3,386,176.09a8.29,8.29,0,0,0-.35-12.08c-51.39-45-129.82-43-178.79,6-51,51-51.06,133.9-.23,185l-32.22,32.22a8.28,8.28,0,0,0,.35,12.06,131,131,0,0,0,178.8-6C404.58,342.29,404.65,259.38,353.82,208.3Zm-33.46,43.82A76.69,76.69,0,0,1,207,355.13l32.7-32.7a8.35,8.35,0,0,0,.42-11.25,76.7,76.7,0,0,1,113.38-103l-32.7,32.7A8.36,8.36,0,0,0,320.36,252.12Z" transform="translate(-168.59 -131.72)"/></svg>